<?xml version="1.0" encoding="UTF-8"?>
<svg id="Capa_1" xmlns="http://www.w3.org/2000/svg" version="1.1" viewBox="0 0 2000 617.08">
  <!-- Generator: Adobe Illustrator 29.6.0, SVG Export Plug-In . SVG Version: 2.1.1 Build 207)  -->
  <path d="M254.885,462.287c-1.074-.429-2.147-.859-3.221-1.074l-.429-.215c-1.074-.644-2.147-1.074-3.221-1.503l-.644-.215c-1.074-.429-1.933-.859-3.006-1.288l-.429-.215c-1.074-.429-2.147-.859-3.006-1.288l-.644-.429c-1.074-.429-1.933-.859-3.006-1.503l-.644-.215c-.859-.43-1.933-1.074-2.791-1.503l-.859-.43c-.644-.429-1.503-.859-2.362-1.503l-1.074-.429c-.859-.429-1.503-1.074-2.362-1.503l-1.074-.644c-.644-.43-1.503-.859-2.362-1.288l-.859-.644c-.644-.644-1.503-1.074-2.147-1.503l-1.288-.859c-.644-.429-1.288-.859-1.933-1.288-.429-.429-.859-.644-1.288-1.074-.644-.429-1.288-.859-1.933-1.288-.429-.215-.859-.644-1.503-1.074l-1.288-1.074c-.644-.429-1.288-.859-1.718-1.503l-1.288-.859c-.644-.429-1.288-1.074-1.718-1.503h-.215l-1.074-1.074h0c-.644-.429-1.288-1.074-1.933-1.503l-.644-.644c-.859-.859-1.718-1.503-2.362-2.147l-.644-.644c-.859-.644-1.503-1.503-2.362-2.362l-.644-.429c-.429-.644-1.074-1.288-1.718-1.933h-.215c-.859-1.074-1.933-1.933-2.791-3.006l-.215-.215c-.859-1.074-1.718-1.933-2.577-2.791l-.215-.215c-2.577-3.006-4.939-5.798-7.301-8.804v-197.982c18.252-23.62,42.731-42.302,71.076-53.038l107.365,161.477v-164.484c28.344,9.019,53.683,25.553,72.794,47.67v214.731l-.859,1.074c-.429.644-1.074,1.288-1.503,1.933l-.859.859c-.644.644-1.288,1.288-1.933,1.718l-.859,1.074h0c-.644.644-1.288,1.074-1.718,1.718l-.859.859-.215.215c-.859.644-1.718,1.503-2.577,2.362v.215c-1.074.644-1.933,1.503-2.791,2.362l-.215.215c-.859.644-1.718,1.503-2.577,2.362h-.215c-.859.859-1.718,1.503-2.577,2.147l-.644.429c-.859.859-1.718,1.503-2.577,2.147l-.429.215c-.859.644-1.503,1.288-2.362,1.933l-.859.644c-.859.429-1.503,1.074-2.362,1.503l-.859.644c-.859.644-1.718,1.074-2.362,1.718l-1.288.859c-.644.429-1.288.644-1.933,1.074-.429.429-.859.644-1.503,1.074-.644.215-1.074.644-1.718,1.074l-1.503.859c-.644.215-1.288.644-1.933,1.074l-1.503.859c-.644.215-1.288.644-1.718.859-.644.429-1.288.644-1.933,1.074l-1.503.859c-.644.215-1.288.429-1.933.859l-1.503.644-2.147,1.074-1.503.644c-.644.429-1.288.644-2.147.859-.429.215-1.074.429-1.503.644-.644.429-1.288.644-1.933.859-.644.215-1.288.429-1.718.644-.644.429-1.503.644-2.147.859l-1.503.644h0l-111.445-167.705v167.275h0ZM309.212,42.918c-146.661,0-265.622,118.961-265.622,265.622s118.961,265.622,265.622,265.622c90.616,0,170.496-45.308,218.381-114.451-26.197-1.288-50.032-10.092-68.499-25.553-35.86,42.731-89.757,70.002-149.882,70.002-108.01,0-195.405-87.61-195.405-195.62s87.395-195.405,195.405-195.405c61.413,0,116.169,28.345,152.029,72.364,1.718-1.074,3.65-1.933,5.798-2.792,13.957-5.798,28.344-10.522,44.664-13.958,6.871-1.503,13.957-2.577,21.258-3.436-47.241-73.653-129.697-122.396-223.749-122.396h0ZM540.476,418.697c-39.296,0-69.573-22.547-69.573-63.99v-.644c0-42.946,32.424-65.063,81.168-65.063,19.111,0,37.793,3.65,49.818,7.945v-3.436c0-21.473-13.528-33.713-41.443-33.713-21.688,0-38.652,4.295-57.118,11.595l-14.816-51.321c23.406-9.663,48.314-16.105,83.745-16.105,37.148,0,62.487,8.804,79.021,25.123,15.675,15.461,22.117,36.934,22.117,65.922v119.175h-71.935v-21.473c-14.172,15.675-33.713,25.982-60.983,25.982h0ZM566.674,373.174c21.044,0,35.86-13.313,35.86-34.142v-9.448c-7.301-3.221-17.608-5.368-28.344-5.368-21.044,0-33.283,10.307-33.283,25.553v.859c0,14.172,10.737,22.547,25.768,22.547h0ZM676.186,206.973h76.444l39.94,120.893,39.725-120.893h75.37l-82.671,208.718h-66.137l-82.671-208.718ZM923.126,134.608h75.8v53.683h-75.8v-53.683ZM924.63,206.973h72.794v207.215h-72.794v-207.215ZM1112.304,418.268c-43.59,0-69.573-19.111-69.573-68.499v-84.174h-24.694v-58.621h24.694v-52.394h72.579v52.394h48.314v58.621h-48.314v70.002c0,14.602,6.657,20.614,19.97,20.614,9.663,0,18.682-2.577,27.486-6.871v57.118c-12.884,7.301-30.062,11.81-50.462,11.81h0ZM1187.03,206.973h72.794v41.658c11.81-28.344,30.921-46.597,65.493-45.093v76.659h-6.227c-37.793,0-59.266,21.688-59.266,69.573v64.419h-72.794v-207.215ZM1392.742,418.697c-39.51,0-69.787-22.547-69.787-63.99v-.644c0-42.946,32.639-65.063,81.168-65.063,19.111,0,38.007,3.65,49.817,7.945v-3.436c0-21.473-13.313-33.713-41.443-33.713-21.688,0-38.651,4.295-56.904,11.595l-15.031-51.321c23.406-9.663,48.314-16.105,83.96-16.105,37.148,0,62.272,8.804,78.806,25.123,15.675,15.461,22.117,36.934,22.117,65.922v119.175h-71.935v-21.473c-14.172,15.675-33.713,25.982-60.769,25.982h0ZM1418.725,373.174c21.044,0,35.86-13.313,35.86-34.142v-9.448c-7.086-3.221-17.393-5.368-28.13-5.368-21.258,0-33.498,10.307-33.498,25.553v.859c0,14.172,10.736,22.547,25.768,22.547h0ZM1554.649,206.973h72.794v29.203c13.313-17.393,32.424-33.713,62.057-33.713,44.02,0,70.432,28.989,70.432,76.229v135.495h-72.794v-112.304c0-22.547-11.81-34.786-29.203-34.786-17.608,0-30.492,12.24-30.492,34.786v112.304h-72.794v-207.215ZM1871.806,418.697c-35.001,0-69.358-9.878-98.132-30.492l27.271-44.235c23.62,15.89,49.818,23.835,71.076,23.835,12.669,0,18.467-3.865,18.467-11.166v-.644c0-8.16-11.596-11.595-33.283-17.608-41.014-10.737-73.438-24.479-73.438-66.352v-.644c0-44.02,35.216-68.714,82.886-68.714,30.277,0,61.842,8.804,85.463,24.265l-24.909,45.952c-21.473-12.025-44.879-19.111-61.198-19.111-11.166,0-16.964,4.08-16.964,9.878v.859c0,7.945,12.025,11.81,33.713,18.252,41.014,11.595,73.653,25.768,73.653,65.922v.644c0,45.738-34.142,69.358-84.604,69.358h0Z" fill-rule="evenodd"/>
</svg>